<svg width="150" height="40" viewBox="0 0 150 40" fill="none" xmlns="http://www.w3.org/2000/svg"> <path d="M15.5918 9.33978C15.4077 9.33978 15.2271 9.33978 15.0483 9.35016C13.4974 9.40505 11.9642 9.69673 10.5022 10.215C7.61964 11.3013 6.37285 13.0172 6.37285 13.0172V6.13805C6.37285 1.96249 4.01472 0.59427 2.16712 0.172216C1.45097 0.0535072 0.725988 -0.0043587 0 -0.000757251L0 39.6689C0 39.6689 3.23679 39.7381 5.09655 38.2851C5.27019 38.1277 5.45773 37.9564 5.63833 37.7662C6.12883 37.1824 6.38985 36.4411 6.37285 35.6801C6.37285 35.6801 7.27929 37.3839 9.89789 38.5722C11.9806 39.41 14.2237 39.7785 16.4662 39.6512C18.7088 39.5239 20.8952 38.904 22.8689 37.8359C24.8427 36.7677 26.5547 35.2779 27.8823 33.4731C29.21 31.6684 30.1203 29.5933 30.5482 27.3969C30.976 25.2004 30.9107 22.9368 30.357 20.7684C29.8032 18.6 28.7747 16.5805 27.3452 14.8547C25.9157 13.1288 24.1206 11.7393 22.0886 10.7859C20.0566 9.83244 17.838 9.3386 15.5918 9.33978ZM15.5136 33.6425C13.741 33.6428 12.0081 33.1195 10.534 32.1387C9.05996 31.1579 7.91102 29.7637 7.23249 28.1324C6.55397 26.5011 6.37635 24.706 6.72209 22.9742C7.06783 21.2423 7.92141 19.6515 9.17487 18.4029C10.4283 17.1543 12.0253 16.3041 13.7639 15.9597C15.5026 15.6153 17.3046 15.7922 18.9423 16.4681C20.5799 17.144 21.9796 18.2885 22.9642 19.7568C23.9488 21.2251 24.4742 22.9513 24.4738 24.7171C24.4711 27.0826 23.5259 29.3503 21.8459 31.0222C20.1659 32.6941 17.8884 33.6334 15.5136 33.6338V33.6425Z" fill="#FFD007"></path> <path d="M146.781 32.9081C145.467 33.573 144.015 33.9202 142.542 33.9217C141.373 33.9217 140.469 33.6306 139.83 33.0482C139.191 32.4659 138.87 31.5186 138.869 30.2063V15.6281H146.894C146.949 15.6281 147.006 15.6281 147.067 15.6281C147.453 15.6281 147.834 15.5525 148.19 15.4056C148.546 15.2587 148.87 15.0434 149.142 14.7719C149.415 14.5005 149.631 14.1782 149.778 13.8235C149.926 13.4689 150.002 13.0887 150.002 12.7049C150.002 12.321 149.926 11.9408 149.778 11.5862C149.631 11.2315 149.415 10.9093 149.142 10.6378C148.87 10.3664 148.546 10.151 148.19 10.0041C147.834 9.85723 147.453 9.78162 147.067 9.78162C147.01 9.78162 146.953 9.78162 146.894 9.79027V9.77643H138.869V8.47567C138.869 7.57396 138.69 6.68117 138.343 5.8483C137.996 5.01542 137.488 4.25878 136.848 3.62157C136.207 2.98437 135.447 2.47909 134.61 2.1346C133.774 1.79011 132.877 1.61315 131.972 1.61383V9.7747H128.187V15.6281H131.972V31.2752C131.972 32.9277 132.181 34.3069 132.599 35.4128C132.966 36.4406 133.586 37.3601 134.403 38.0869C135.204 38.773 136.148 39.2728 137.168 39.5503C138.295 39.8584 139.459 40.0098 140.628 40C141.768 40.0176 142.905 39.8868 144.011 39.6108C144.978 39.3534 145.909 38.9751 146.781 38.4848C146.781 38.4848 149.917 37.3172 149.917 34.4355C149.917 31.5537 146.781 32.9081 146.781 32.9081Z" fill="#FFD007"></path> <path d="M121.522 33.9217H105.057L122.288 14.4467C122.288 14.4467 123.811 13.146 123.811 11.5252C123.811 9.90445 122.295 9.77472 122.295 9.77472H96.9752V15.3479H113.586L96.3535 34.8212V39.4915H121.428C121.816 39.4943 122.198 39.3958 122.535 39.2058C122.873 39.0158 123.155 38.741 123.352 38.4087C123.649 37.8459 123.798 37.2176 123.786 36.5821C123.798 36.058 123.692 35.5379 123.475 35.0599C123.137 34.349 122.314 33.9217 121.522 33.9217Z" fill="#FFD007"></path> <path d="M50.2604 39.5157C49.67 39.5381 49.0789 39.5208 48.4909 39.4638C46.1605 39.2193 43.9205 38.4319 41.9522 37.1653C39.9838 35.8987 38.3423 34.1885 37.1604 32.173C35.7106 29.6782 35.0007 26.8251 35.1131 23.9447C35.3562 17.8422 39.2963 12.3745 45.1082 10.3836C47.7902 9.45895 50.6805 9.3114 53.4433 9.95807C57.0552 10.8229 59.962 13.2446 62.0406 16.2456C63.3395 18.1241 64.463 20.1289 65.5517 22.0679C67.1146 24.8476 68.6183 27.8988 70.749 30.2945C73.0863 32.9237 76.745 34.1224 80.1433 32.986C84.6581 31.4794 87.1448 26.3196 85.7191 21.8396C84.455 17.8612 80.6834 15.296 76.4915 15.7094C74.09 15.9447 71.9246 17.1814 70.327 18.9527C69.1792 20.224 68.2832 21.7773 67.2708 23.1628L63.942 17.5775L65.6629 15.3514C67.9835 12.324 71.38 10.2969 75.1544 9.6865C81.3675 8.72996 87.4625 11.9455 90.3312 17.4703C91.0318 18.82 91.5302 20.2647 91.8107 21.7583C92.9533 27.866 90.2079 34.3957 84.7953 37.587C79.4835 40.7178 72.2233 40.0934 67.672 35.9299C66.6957 35.0267 65.8148 34.0263 65.0429 32.9444C63.0981 30.2582 61.4293 27.3055 59.896 24.3736C58.2308 21.1892 56.2217 17.3267 52.5716 16.1246C51.6151 15.7997 50.6127 15.6292 49.6022 15.6195C47.3657 15.6195 45.1499 16.7127 43.5888 18.2867C42.1854 19.7004 41.3061 21.5473 41.0953 23.5243C40.9397 25.3471 41.3295 27.175 42.2153 28.7775C43.068 30.3965 44.3901 31.7224 46.0095 32.5829C47.2769 33.2134 48.6857 33.5086 50.1007 33.4401C51.5157 33.3716 52.8892 32.9418 54.0893 32.192C56.5551 30.6128 57.9338 27.9196 59.6043 25.619L62.5407 30.6353C62.6484 30.7893 62.7159 30.9676 62.7369 31.1542C62.7271 31.3298 62.6753 31.5006 62.5858 31.6523C60.2815 36.2517 55.3934 39.3306 50.2604 39.5157Z" fill="#FFD007"></path> </svg>