<svg width="104" height="36" fill="none" xmlns="http://www.w3.org/2000/svg"><path fill-rule="evenodd" clip-rule="evenodd" d="M-.05 1.902a.277.277 0 01.277-.278h2.628c.154 0 .278.124.278.278v20.123c0 1.18.163 1.909.602 2.314.267.246.615.329.97.383.5.076 1.025.073 1.527.07a.278.278 0 01.278.278v2.656a.27.27 0 01-.25.27c-.784.04-3.22.046-4.684-1.317-.902-.84-1.627-2.221-1.627-4.654V1.902z" fill="#fff"></path><path d="M11.557 18.733c.191-1.3.764-2.33 1.643-3.133.917-.84 1.987-1.223 3.247-1.223 1.223 0 2.216.306 3.095.955.84.65 1.414 1.49 1.681 2.56l-9.666.84zm4.967-7.489c-2.293-.038-4.203.765-5.808 2.407-1.566 1.605-2.368 3.592-2.368 5.96 0 2.293.84 4.28 2.483 5.922 1.643 1.643 3.591 2.446 5.922 2.446a8.172 8.172 0 004.088-1.07 8.253 8.253 0 003.056-2.904c.077-.153.039-.267-.114-.344l-2.293-1.337c-.114-.076-.229-.038-.343.077-.459.764-1.108 1.337-1.872 1.795a5.341 5.341 0 01-2.522.611c-1.032 0-1.987-.267-2.827-.802a5.033 5.033 0 01-1.91-2.177l12.302-1.032c.152-.038.229-.115.229-.267v-1.07c0-2.216-.764-4.165-2.33-5.77-1.567-1.642-3.477-2.444-5.693-2.444zM35.582 24.842c-1.452 0-2.674-.497-3.706-1.528-1.031-1.032-1.566-2.255-1.566-3.706 0-1.452.535-2.675 1.566-3.706 1.032-1.032 2.254-1.529 3.706-1.529s2.675.497 3.706 1.529c1.032 1.031 1.529 2.254 1.529 3.706 0 1.451-.497 2.674-1.529 3.706-1.031 1.031-2.254 1.528-3.706 1.528zm5.35-11.73c-1.644-1.337-3.516-1.986-5.617-1.91-2.14.077-4.012.879-5.578 2.369-1.528 1.528-2.407 3.324-2.522 5.464-.153 2.445.573 4.546 2.254 6.303a8.063 8.063 0 002.713 1.949 8.723 8.723 0 003.4.688c1.987 0 3.783-.612 5.35-1.91v1.528a5.361 5.361 0 01-1.032 3.209c-.688.993-1.605 1.643-2.675 1.948a4.952 4.952 0 01-3.4-.076c-1.108-.42-1.949-1.108-2.56-2.101-.115-.153-.191-.153-.344-.077l-2.33 1.337c-.115.077-.153.191-.077.306.764 1.26 1.796 2.216 3.057 2.942a8.172 8.172 0 004.088 1.07c2.33 0 4.317-.84 5.96-2.484 1.643-1.643 2.445-3.591 2.445-5.922V11.393c0-.152-.077-.229-.23-.229H41.16c-.152 0-.229.077-.229.23v1.719zM55.62 24.803c-1.452 0-2.674-.534-3.668-1.566-1.07-1.031-1.566-2.254-1.566-3.706s.497-2.674 1.566-3.706c.994-1.031 2.216-1.528 3.668-1.528s2.713.497 3.706 1.528c1.032 1.032 1.566 2.254 1.566 3.706s-.534 2.675-1.566 3.706c-.993 1.032-2.254 1.567-3.706 1.567zm0-13.639c-2.292 0-4.279.802-5.922 2.445-1.643 1.643-2.483 3.592-2.483 5.922 0 2.33.84 4.317 2.483 5.96 1.643 1.605 3.63 2.445 5.922 2.445 2.33 0 4.317-.84 5.922-2.445 1.643-1.643 2.483-3.63 2.483-5.96s-.84-4.279-2.483-5.922c-1.605-1.643-3.591-2.445-5.922-2.445zM82.041 22.512V20.64l-.038-.497v-2.139c0-.23 0-.497-.038-.726-.076-.458-.153-.955-.344-1.413-.305-.956-.84-1.758-1.528-2.484a6.076 6.076 0 00-2.483-1.604c-.42-.192-.88-.306-1.376-.383l-.382-.038h-1.031c-.917.077-1.758.344-2.56.726-.268.153-.535.344-.84.535v-1.26c0-.154-.077-.23-.23-.23h-2.713c-.19 0-.267.076-.267.23v16.39c0 .152.076.229.267.229h2.713c.153 0 .23-.077.23-.23v-9.704c.037-.038.037-.153.037-.267v-.191c.039-.077.039-.191.077-.344.076-.268.19-.573.306-.84.152-.345.382-.65.649-.918.688-.764 1.528-1.146 2.522-1.184H75.622c.04 0 .04 0 .077.038h.115c.267.038.535.115.764.191.535.23.993.497 1.375.917.382.42.65.879.84 1.376.077.267.115.535.154.802V22.512c-.038 1.529-.038 2.828-.038 3.86v1.336c0 .153.076.23.229.23h2.674c.191 0 .268-.077.268-.23l-.039-1.337v-3.859zM91.482 24.801c-1.032 0-1.758-.19-2.14-.65-.267-.267-.42-.763-.42-1.45 0-.498.191-.918.535-1.224.764-.687 2.292-1.031 4.546-1.031.497 0 1.032 0 1.605.038-.191 1.681-.802 2.904-1.796 3.63a3.776 3.776 0 01-1.26.573 4.834 4.834 0 01-1.07.114zm7.297-4.966c.038-.23.038-.42.038-.612 0-1.413-.076-2.56-.229-3.362-.267-1.26-.726-2.292-1.49-3.018-1.032-1.108-2.56-1.643-4.546-1.643-1.376 0-2.675.268-3.821.84-.42.192-.802.421-1.184.65-.153.115-.268.191-.382.306a1.914 1.914 0 00-.306.267c-.115.115-.115.23 0 .344l1.987 1.796c.114.114.19.114.305 0 .153-.077.268-.191.459-.268.19-.152.458-.267.687-.382a6.225 6.225 0 012.255-.42c1.107 0 1.872.23 2.292.688.42.458.688 1.222.764 2.33-3.897-.267-6.648.344-8.252 1.758-1.032.917-1.567 2.14-1.567 3.591 0 1.643.497 2.942 1.528 3.859.994.917 2.407 1.413 4.165 1.413 1.757 0 3.247-.534 4.546-1.604.038.458.077.955.153 1.414.038.114.115.19.23.19h2.712c.153 0 .267-.076.23-.267-.077-.42-.115-.879-.154-1.299-.076-.573-.153-1.146-.19-1.72-.154-1.527-.23-2.826-.23-3.896v-.955z" fill="#fff"></path><path d="M91.058 10.366c.95-.162 1.714-1.147 1.728-1.145.031.003.102-2.645-1.787-3.529-.255-.099-.374-.123-.992-.191-.758-.084-1.047-.077-1.823.033-.423.06-1.091.192-1.502.303-.45.12-1.082.303-1.23.358-.13.053-.142.062-.081.094.886.468 1.142.688 1.966 1.693.709.856.979 1.146 1.444 1.535.469.39.902.647 1.3.773.262.082.723.119.977.076zm5.272-.038c.745-.02 1.64-.279 2.328-.903.912-.827 1.679-1.876 2.432-3.317.524-1.009.665-1.26.932-1.678a6.346 6.346 0 011.571-1.735l.39-.312-1.372-.13c-3.425-.33-5.705-.063-7.417.856-.63.34-1.332 1.019-1.652 1.598-.922 1.674-.135 4.726-.135 4.726s1.418.895 2.923.895z" fill="#8FBC3E"></path></svg>