<svg width="139" height="33" viewBox="0 0 139 33" fill="none" xmlns="http://www.w3.org/2000/svg"> <path d="M27.9851 10.3283V23.4377H36.0949V9.32434C36.1093 8.05656 35.9036 6.7956 35.4868 5.5952C35.1105 4.5252 34.5341 3.53303 33.7872 2.66926C33.0602 1.8497 32.1605 1.19402 31.1499 0.747324C30.0531 0.289327 28.8695 0.0644473 27.6774 0.0875537C26.2646 0.0738086 24.8686 0.388405 23.6042 1.0055C22.3997 1.60613 21.3444 2.45802 20.5126 3.50115C19.7644 2.43697 18.7574 1.5719 17.5822 0.983981C16.3912 0.383259 15.0686 0.0755814 13.7288 0.0875537C12.3941 0.0754539 11.0748 0.367628 9.87536 0.940952C8.91631 1.40432 8.09043 2.09447 7.47246 2.94895V0.797524H0V23.8178H8.10981V11.1817C8.10981 8.2558 9.23801 6.78566 11.509 6.78566C13.2233 6.78566 14.0805 7.96655 14.0805 10.3283V23.8178H21.9778V11.1817C21.9778 8.2558 23.1133 6.78566 25.377 6.78566C27.1157 6.78566 27.9851 7.96655 27.9851 10.3283Z" fill="#5A58E2"></path> <path d="M47.693 0.767446L46.6894 2.68939C45.6728 1.85625 44.5248 1.19021 43.2901 0.717246C41.996 0.2373 40.6228 -0.00578315 39.2389 0.000104441C37.8299 0.00613907 36.4323 0.248703 35.1071 0.717246C36.7185 2.53466 37.8615 4.70362 38.4404 7.04244C39.1163 6.75081 39.8482 6.6041 40.5869 6.61215C41.2589 6.59092 41.9281 6.70755 42.5514 6.95456C43.1746 7.20158 43.7382 7.5735 44.2059 8.04643C44.671 8.52264 45.0339 9.08534 45.273 9.70123C45.5121 10.3171 45.6225 10.9737 45.5978 11.6321C45.6232 12.3004 45.5132 12.9669 45.2743 13.5934C45.0355 14.2198 44.6723 14.7939 44.2059 15.2824C43.7399 15.7575 43.1766 16.1309 42.5529 16.378C41.9293 16.6252 41.2593 16.7406 40.5869 16.7167C39.6794 16.7325 38.7849 16.5043 38.0008 16.0569V23.1638C38.4037 23.1996 38.814 23.214 39.2389 23.214C40.3392 23.2183 41.4346 23.0685 42.4916 22.7694C43.5321 22.4868 44.5208 22.0464 45.422 21.4642V22.1813C45.4441 22.7938 45.3237 23.4033 45.0698 23.9636C44.816 24.5239 44.4354 25.0204 43.9568 25.4156C42.9862 26.2062 41.7537 26.622 40.4916 26.5845C39.5276 26.5922 38.5739 26.3889 37.7005 25.9893C37.1033 25.7314 36.5947 25.3107 36.2353 24.7773H28.25C28.7819 27.1635 30.2027 29.2702 32.2353 30.6866C34.6997 32.3008 37.6242 33.1069 40.5869 32.9886C42.3721 33.0133 44.1486 32.7392 45.8396 32.1782C47.3169 31.6845 48.6721 30.8929 49.8176 29.8547C50.9186 28.8178 51.7738 27.5571 52.323 26.1614C52.9245 24.5941 53.2202 22.9303 53.1948 21.2562V0.767446H47.693Z" fill="#5A58E2"></path> <path d="M72.7384 1.84312C73.151 1.41639 73.5915 1.01634 74.0571 0.64549H68.7091C67.4569 0.616613 66.2114 0.833636 65.0462 1.28375C63.9518 1.74015 62.981 2.43994 62.211 3.3276L60.9437 0.767404H55.5371V23.8163H63.6469V12.0767C63.5452 10.9471 63.8798 9.82124 64.5846 8.9213C65.2074 8.26871 66.2476 7.93882 67.7055 7.93882H68.5919C69.436 5.6016 70.861 3.50674 72.7384 1.84312V1.84312Z" fill="#5A58E2"></path> <path d="M71.3381 7.36508C71.9715 5.89855 72.9067 4.57544 74.0853 3.47817C75.2971 2.36757 76.7178 1.49806 78.2684 0.917973C81.6816 -0.304364 85.4266 -0.304364 88.8398 0.917973C90.3956 1.49641 91.8214 2.366 93.0375 3.47817C94.2071 4.57994 95.1367 5.90215 95.7701 7.36508C96.4189 8.92842 96.7355 10.6048 96.7005 12.2918C96.7304 13.9775 96.4089 15.6515 95.7555 17.2114C95.129 18.6766 94.2042 20.0016 93.0375 21.1055C91.8234 22.2202 90.397 23.0901 88.8398 23.6657C88.1939 23.9152 87.5272 24.1096 86.8471 24.2466V24.1892C85.8581 22.2745 84.7226 20.9621 85.2501 19.8362C85.5797 19.119 86.9424 17.8138 86.5761 17.8569C80.1659 18.5023 78.5761 13.9413 78.8399 13.6974C79.1036 13.4536 80.6274 15.9636 83.7556 16.566C86.3563 17.0895 90.4881 14.766 90.4881 14.766C90.261 12.5357 87.8508 11.6464 86.5907 10.6424C83.7849 8.39776 84.9863 6.28219 89.5211 5.83039C89.8434 5.79454 88.7885 3.91563 87.0083 3.8224C84.4076 3.6718 77.5871 3.05506 75.8143 7.20013C75.0817 8.9141 76.0047 9.62407 75.1476 11.7827C74.4809 13.4536 73.4993 16.0855 71.6605 17.8712C71.5432 17.6561 71.4333 17.4337 71.3308 17.1971C70.659 15.6458 70.3175 13.9767 70.3271 12.2918C70.3177 10.5993 70.6617 8.92275 71.3381 7.36508V7.36508ZM88.1878 7.04953C82.7666 8.26868 88.5541 10.4058 89.5577 11.5604C90.3023 12.3089 90.8263 13.2406 91.0742 14.2568C91.3859 14.0494 91.6472 13.7774 91.8397 13.4602C92.0321 13.1429 92.1509 12.7881 92.1877 12.4209C92.2756 10.0902 90.3562 9.50933 89.7848 9.03602C89.1329 8.47501 88.5916 7.80171 88.1878 7.04953V7.04953Z" fill="#5A58E2"></path> <path d="M116.862 0.652588V15.5548C116.862 18.1006 116.13 20.1445 114.752 21.6433C113.829 22.6175 112.655 23.3309 111.353 23.7087C109.622 24.179 107.83 24.3965 106.035 24.3541C104.586 24.3761 103.144 24.1802 101.756 23.7732C100.596 23.4385 99.526 22.8583 98.6207 22.0736C98.2655 21.762 97.9461 21.4133 97.6684 21.0338C97.4394 20.7351 97.236 20.4185 97.0603 20.0871C97.2068 19.8433 97.346 19.6043 97.4779 19.37C98.6227 17.2824 99.1718 14.9315 99.0676 12.5643C98.9346 9.40255 97.8852 6.34312 96.042 3.74347V0.652588H103.097V14.9954C103.069 15.7457 103.183 16.4947 103.434 17.2042C103.638 17.7255 104.032 18.1546 104.54 18.409C105.167 18.6959 105.856 18.8289 106.547 18.7963C107.003 18.8353 107.463 18.7737 107.891 18.6161C108.32 18.4585 108.707 18.2088 109.024 17.8855C109.617 17.0469 109.896 16.0338 109.815 15.0169V0.652588H116.862Z" fill="#5A58E2"></path> <path d="M136.65 2.8686C136.064 2.33456 135.387 1.90497 134.65 1.59926C133.782 1.24481 132.871 1.00369 131.939 0.88212C130.701 0.717717 129.452 0.641023 128.203 0.652635H119.185V23.8737H126.239V16.7811H130.445C132.022 16.8227 133.588 16.5009 135.016 15.8417C136.261 15.2541 137.286 14.2983 137.946 13.1094C138.643 11.7801 138.986 10.3001 138.943 8.80653C138.913 6.25351 138.159 4.30288 136.65 2.8686ZM131.521 10.4416C131.338 10.663 131.107 10.8421 130.845 10.9661C130.583 11.09 130.296 11.1558 130.005 11.1588H126.21V6.35391H129.69C130.022 6.33192 130.356 6.37585 130.671 6.48306C130.985 6.59026 131.275 6.75855 131.521 6.97782C131.745 7.21391 131.918 7.49199 132.029 7.79522C132.139 8.09845 132.186 8.42054 132.166 8.74199C132.187 9.35559 131.967 9.95374 131.551 10.4129L131.521 10.4416Z" fill="#5A58E2"></path> <path d="M80.4739 12.3204C80.0257 12.0897 79.664 11.7256 79.441 11.2805C79.2671 10.8754 79.2138 10.4304 79.2871 9.99683C79.3453 9.57625 79.5466 9.18715 79.8586 8.89243C80.2509 8.56823 80.7233 8.3506 81.2285 8.26135C80.9506 8.12729 80.6437 8.06057 80.3339 8.06681C80.0241 8.07305 79.7204 8.15207 79.4483 8.29721C79.1575 8.4583 78.908 8.68219 78.7189 8.95185C78.5297 9.22151 78.4059 9.52985 78.3567 9.8534C78.3035 10.1711 78.3176 10.4962 78.3983 10.8084C78.4789 11.1205 78.6244 11.4131 78.8256 11.6678C79.0173 11.909 79.2707 12.0964 79.5602 12.211C79.8496 12.3256 80.1648 12.3633 80.4739 12.3204V12.3204Z" fill="#5A58E2"></path> </svg>