<svg xmlns="http://www.w3.org/2000/svg" width="204.234" height="41.844" viewBox="0 0 204.234 41.844">
  <g id="Group_10720" data-name="Group 10720" transform="translate(-1065.631 -811.138)">
    <path id="Path_88" data-name="Path 88" d="M13.891-33.957H8.951L.084-56.53h4.5l6.836,18.275L18.257-56.53h4.5Zm18.681,0H28.613V-56.53h3.959Zm15.906.406q-5.821,0-9.171-3.587l2.2-3.046a9.4,9.4,0,0,0,7.141,3.113,5.344,5.344,0,0,0,3.4-.914,2.713,2.713,0,0,0,1.134-2.166A2.294,2.294,0,0,0,51.828-42.2a12.245,12.245,0,0,0-3.283-1.2q-1.929-.44-3.875-1.049a7.473,7.473,0,0,1-3.3-2.064,5.3,5.3,0,0,1-1.354-3.756A5.862,5.862,0,0,1,42.3-54.99a9.049,9.049,0,0,1,5.939-1.878,11.648,11.648,0,0,1,8.46,3.147l-2.267,2.944A8.849,8.849,0,0,0,47.9-53.348a4.605,4.605,0,0,0-2.792.761,2.415,2.415,0,0,0-1.032,2.047,1.749,1.749,0,0,0,.728,1.421,5.73,5.73,0,0,0,1.878.931q1.151.355,2.555.694t2.809.829a13.011,13.011,0,0,1,2.555,1.2A5.51,5.51,0,0,1,56.481-43.5a5.826,5.826,0,0,1,.728,2.978,6.414,6.414,0,0,1-2.2,5.009Q52.809-33.551,48.478-33.551Zm31.236-.406H64.248V-56.53H79.714v3.486H68.207v5.855H79.477V-43.7H68.207v6.261H79.714Zm18.884,0H93.656L84.79-56.53h4.5l6.836,18.275,6.836-18.275h4.5Zm30.187,0H113.318V-56.53h15.466v3.486H117.278v5.855h11.269V-43.7H117.278v6.261h11.506Zm27.006,0h-3.824L140.189-50.066v16.109h-3.959V-56.53h4.061l11.54,15.669V-56.53h3.959Z" transform="translate(1114.075 886.533)" fill="#150e52"/>
    <g id="Group_10680" data-name="Group 10680" transform="translate(1065.631 811.138)">
      <g id="Group_206" data-name="Group 206" transform="translate(0 0)">
        <g id="Сгруппировать_196" data-name="Сгруппировать 196">
          <path id="Path_55-2" data-name="Path 55-2" d="M160.136,439.186l-6.247-12.5a3.45,3.45,0,0,1,0-3.087l5.63-11.262a.69.69,0,0,1,1.235,0l6.4,12.8Z" transform="translate(-153.525 -399.878)" fill="#2e4fff" fill-rule="evenodd"/>
          <path id="Path_56-2" data-name="Path 56-2" d="M176,417.41l20.445-40.887a.69.69,0,0,1,1.235,0l4.858,9.717a6.9,6.9,0,0,1,0,6.175L190.8,415.883a2.761,2.761,0,0,1-2.47,1.527Z" transform="translate(-168.418 -376.141)" fill="#03a9f4" fill-rule="evenodd"/>
        </g>
      </g>
    </g>
  </g>
</svg>
